<svg width="936" height="130" viewBox="0 0 936 130" fill="none" xmlns="http://www.w3.org/2000/svg">
<path d="M50.063 3.37354H10.0125C6.32594 3.37354 3.3374 6.36479 3.3374 10.0547V50.1416C3.3374 53.8315 6.32594 56.8227 10.0125 56.8227H50.063C53.7495 56.8227 56.7381 53.8315 56.7381 50.1416V10.0547C56.7381 6.36479 53.7495 3.37354 50.063 3.37354Z" fill="#009689"/>
<path d="M53.4006 10.0549C53.4006 8.20999 51.9064 6.71431 50.0631 6.71429H10.0126C8.16935 6.71429 6.67502 8.20998 6.67502 10.0549V50.1418C6.67504 51.9868 8.16936 53.4824 10.0126 53.4824H50.0631C51.9064 53.4824 53.4006 51.9868 53.4006 50.1418V10.0549ZM60.0758 50.1418C60.0757 55.6767 55.5929 60.1636 50.0631 60.1636H10.0126C4.48282 60.1636 1.81654e-05 55.6767 0 50.1418V10.0549C0 4.52008 4.48281 0.0332031 10.0126 0.0332031H50.0631C55.5929 0.0332213 60.0758 4.52009 60.0758 10.0549V50.1418Z" fill="#009689"/>
<path d="M122.822 10.0217C122.822 8.17679 121.327 6.6811 119.484 6.68109H79.4335C77.5903 6.68109 76.0959 8.17678 76.0959 10.0217V50.1086C76.0959 51.9536 77.5903 53.4492 79.4335 53.4492H119.484C121.327 53.4492 122.822 51.9536 122.822 50.1086V10.0217ZM129.497 50.1086C129.497 55.6435 125.014 60.1303 119.484 60.1304H79.4335C73.9037 60.1304 69.4209 55.6435 69.4209 50.1086V10.0217C69.4209 4.48688 73.9037 0 79.4335 0H119.484C125.014 1.81841e-05 129.497 4.48689 129.497 10.0217V50.1086Z" fill="black"/>
<path d="M53.4006 79.5725C53.4006 77.7276 51.9064 76.2319 50.0631 76.2319H10.0126C8.16935 76.2319 6.67502 77.7276 6.67502 79.5725V119.659C6.67504 121.504 8.16936 123 10.0126 123H50.0631C51.9064 123 53.4006 121.504 53.4006 119.659V79.5725ZM60.0758 119.659C60.0757 125.194 55.5929 129.681 50.0631 129.681H10.0126C4.48282 129.681 1.81654e-05 125.194 0 119.659V79.5725C0 74.0377 4.48281 69.5508 10.0126 69.5508H50.0631C55.5929 69.5508 60.0758 74.0377 60.0758 79.5725V119.659Z" fill="black"/>
<path d="M69.4541 115.651V112.978C69.4541 111.133 70.9483 109.638 72.7916 109.638C74.6349 109.638 76.1291 111.133 76.1291 112.978V115.651C76.1291 117.577 76.1318 118.82 76.209 119.767C76.2831 120.674 76.4088 121.011 76.4929 121.176H76.493C76.803 121.785 77.2918 122.284 77.8927 122.605L77.9512 122.636L77.9515 122.636C78.1165 122.72 78.4527 122.846 79.3594 122.92C80.305 122.997 81.5475 123 83.4718 123H86.1418C87.985 123 89.4793 124.496 89.4794 126.341C89.4794 128.185 87.985 129.681 86.1418 129.681H83.4718C81.6577 129.681 80.0962 129.684 78.8157 129.579C77.4962 129.471 76.1838 129.233 74.921 128.589V128.589C73.0368 127.628 71.5053 126.095 70.5455 124.209C69.902 122.945 69.6639 121.632 69.5561 120.311C69.4515 119.029 69.4541 117.466 69.4541 115.651ZM102.829 123C104.673 123 106.167 124.496 106.167 126.341C106.167 128.185 104.673 129.681 102.829 129.681H96.1544C94.3111 129.681 92.8169 128.185 92.8169 126.341C92.8169 124.496 94.3111 123 96.1544 123H102.829ZM122.855 115.651V112.978C122.855 111.133 124.349 109.638 126.192 109.638C128.036 109.638 129.53 111.133 129.53 112.978V115.651C129.53 117.466 129.532 119.029 129.428 120.311C129.32 121.632 129.082 122.945 128.438 124.209L128.438 124.209C127.479 126.095 125.947 127.628 124.063 128.589L124.063 128.589C122.8 129.233 121.488 129.471 120.168 129.579C118.888 129.684 117.326 129.681 115.512 129.681H112.842C110.999 129.681 109.505 128.185 109.505 126.341C109.505 124.496 110.999 123 112.842 123H115.512C117.436 123 118.679 122.997 119.625 122.92C120.531 122.846 120.867 122.72 121.032 122.636L121.033 122.636C121.66 122.316 122.171 121.805 122.491 121.176L122.491 121.176C122.575 121.011 122.701 120.674 122.775 119.767C122.852 118.82 122.855 117.577 122.855 115.651ZM69.4541 102.957V96.2753C69.4541 94.4304 70.9484 92.9348 72.7916 92.9348C74.6349 92.9348 76.1291 94.4304 76.1291 96.2753V102.957C76.1291 104.801 74.6349 106.297 72.7916 106.297C70.9483 106.297 69.4541 104.801 69.4541 102.957ZM122.855 102.957V96.2753C122.855 94.4304 124.349 92.9348 126.192 92.9348C128.036 92.9348 129.53 94.4304 129.53 96.2753V102.957C129.53 104.801 128.036 106.297 126.192 106.297C124.349 106.297 122.855 104.801 122.855 102.957ZM69.4541 86.2536V83.5812C69.4541 81.7654 69.4515 80.2027 69.5561 78.921C69.6639 77.6004 69.902 76.2868 70.5454 75.0228H70.5453C71.5053 73.137 73.0371 71.6038 74.9212 70.643V70.6431C76.184 69.9991 77.4964 69.7608 78.8158 69.6529C80.0963 69.5481 81.6577 69.5508 83.4718 69.5508H86.1418C87.985 69.5508 89.4794 71.0464 89.4794 72.8913C89.4794 74.7363 87.985 76.2319 86.1418 76.2319H83.4718C81.5475 76.2319 80.305 76.2345 79.3594 76.3118C78.4527 76.386 78.1165 76.5119 77.9515 76.596H77.9514C77.3235 76.9163 76.8129 77.4273 76.493 78.0558V78.0559C76.4089 78.2211 76.2831 78.5576 76.209 79.4651C76.1318 80.4116 76.1291 81.6552 76.1291 83.5812V86.2536C76.1291 88.0985 74.6349 89.5942 72.7916 89.5942C70.9483 89.5942 69.4541 88.0985 69.4541 86.2536ZM122.855 86.2536V83.5812C122.855 81.6552 122.852 80.4116 122.775 79.4651C122.701 78.5576 122.575 78.2211 122.491 78.0559L122.491 78.0556C122.171 77.4274 121.661 76.9164 121.032 76.596V76.5959C120.868 76.5118 120.531 76.386 119.625 76.3118C118.679 76.2345 117.436 76.2319 115.512 76.2319H112.842C110.999 76.2319 109.505 74.7363 109.505 72.8913C109.505 71.0464 110.999 69.5508 112.842 69.5508H115.512C117.326 69.5508 118.888 69.5481 120.168 69.6529C121.488 69.7608 122.8 69.999 124.063 70.6431L124.063 70.6432C125.947 71.6038 127.479 73.1367 128.438 75.0226L128.498 75.1413C129.097 76.3688 129.323 77.6416 129.428 78.921C129.532 80.2027 129.53 81.7655 129.53 83.5812V86.2536C129.53 88.0985 128.036 89.5942 126.192 89.5942C124.349 89.5942 122.855 88.0985 122.855 86.2536ZM102.829 69.5508C104.673 69.5508 106.167 71.0464 106.167 72.8913C106.167 74.7363 104.673 76.2319 102.829 76.2319H96.1544C94.3111 76.2319 92.8169 74.7363 92.8169 72.8913C92.8169 71.0464 94.3111 69.5508 96.1544 69.5508H102.829Z" fill="black"/>
<path d="M899.617 105.956V42.3154H913.905L914.5 59.9537L913.191 59.7154C914.143 53.5976 915.929 49.188 918.549 46.4867C921.248 43.7058 924.899 42.3154 929.503 42.3154H935.338V55.425H929.384C926.13 55.425 923.431 55.9017 921.287 56.8551C919.144 57.8085 917.517 59.3181 916.406 61.3839C915.374 63.3702 914.858 65.9921 914.858 69.2496V105.956H899.617Z" fill="black"/>
<path d="M849.235 107.387C842.567 107.387 837.209 105.877 833.161 102.858C829.113 99.7595 827.088 95.4691 827.088 89.987C827.088 84.5048 828.795 80.2144 832.208 77.1158C835.622 74.0172 840.821 71.7925 847.806 70.4418L868.882 66.2706C868.882 61.7418 867.85 58.3651 865.786 56.1405C863.722 53.8364 860.666 52.6843 856.618 52.6843C852.966 52.6843 850.069 53.5583 847.926 55.3062C845.862 56.9747 844.433 59.398 843.639 62.5761L828.16 61.861C829.43 55.1076 832.526 49.9432 837.447 46.3679C842.369 42.7131 848.759 40.8857 856.618 40.8857C865.667 40.8857 872.494 43.1898 877.098 47.798C881.781 52.3268 884.123 58.8419 884.123 67.3432V90.4637C884.123 92.1322 884.401 93.2842 884.956 93.9198C885.591 94.5555 886.504 94.8733 887.695 94.8733H889.719V105.957C889.243 106.116 888.449 106.235 887.338 106.314C886.306 106.394 885.234 106.434 884.123 106.434C881.503 106.434 879.161 106.036 877.098 105.242C875.034 104.368 873.446 102.898 872.335 100.832C871.223 98.6869 870.668 95.787 870.668 92.1322L871.978 93.0856C871.343 95.8664 869.953 98.3691 867.81 100.594C865.746 102.739 863.127 104.407 859.952 105.599C856.776 106.791 853.204 107.387 849.235 107.387ZM852.331 96.3034C855.744 96.3034 858.681 95.6281 861.142 94.2774C863.603 92.9267 865.508 91.0596 866.858 88.676C868.207 86.2925 868.882 83.4719 868.882 80.2144V76.6391L852.45 79.976C849.037 80.6911 846.576 81.7637 845.068 83.1938C843.639 84.5445 842.925 86.3322 842.925 88.5568C842.925 91.0198 843.718 92.9267 845.306 94.2774C846.973 95.6281 849.315 96.3034 852.331 96.3034Z" fill="black"/>
<path d="M810.903 105.957C806.299 105.957 802.608 104.765 799.83 102.381C797.052 99.9977 795.663 96.184 795.663 90.9401V21.3403H810.903V89.3908C810.903 90.9799 811.3 92.1716 812.094 92.9662C812.967 93.7607 814.158 94.1579 815.666 94.1579H820.31V105.957H810.903Z" fill="black"/>
<path d="M745.573 107.386C739.143 107.386 734.023 105.281 730.213 101.07C726.482 96.7797 724.617 90.8605 724.617 83.3126V42.3154H739.858V79.4989C739.858 84.8222 740.731 88.755 742.477 91.2975C744.303 93.7605 747.041 94.992 750.693 94.992C754.821 94.992 757.996 93.6413 760.218 90.94C762.521 88.1591 763.672 84.1468 763.672 78.903V42.3154H778.912V105.956H764.981L764.624 88.4372L766.529 89.0331C765.577 95.0715 763.314 99.6399 759.742 102.739C756.17 105.837 751.447 107.386 745.573 107.386Z" fill="black"/>
<path d="M675.379 107.387C669.981 107.387 665.298 106.036 661.329 103.335C657.439 100.633 654.423 96.7799 652.28 91.7744C650.137 86.7689 649.065 80.8895 649.065 74.1361C649.065 67.3827 650.137 61.5032 652.28 56.4978C654.423 51.4923 657.479 47.6389 661.448 44.9375C665.417 42.2362 670.061 40.8855 675.379 40.8855C679.825 40.8855 683.714 41.7992 687.048 43.6266C690.461 45.454 693.041 48.0362 694.788 51.3731V21.3403H710.029V105.957H695.502L695.145 96.5415C693.398 99.9579 690.779 102.62 687.286 104.526C683.794 106.433 679.825 107.387 675.379 107.387ZM680.023 94.9922C683.198 94.9922 685.857 94.1977 688.001 92.6086C690.223 91.0196 691.89 88.6758 693.002 85.5771C694.192 82.3991 694.788 78.5854 694.788 74.1361C694.788 69.6073 694.192 65.7936 693.002 62.695C691.89 59.5964 690.223 57.2526 688.001 55.6635C685.857 54.0745 683.198 53.28 680.023 53.28C675.419 53.28 671.728 55.1471 668.95 58.8813C666.251 62.5361 664.901 67.621 664.901 74.1361C664.901 80.4922 666.251 85.5771 668.95 89.3908C671.728 93.1251 675.419 94.9922 680.023 94.9922Z" fill="black"/>
<path d="M609.799 107.387C603.528 107.387 598.011 106.036 593.249 103.335C588.565 100.554 584.914 96.6609 582.294 91.6555C579.754 86.65 578.484 80.8103 578.484 74.1363C578.484 67.3829 579.754 61.5432 582.294 56.6172C584.914 51.6117 588.565 47.7583 593.249 45.057C598.011 42.2761 603.528 40.8857 609.799 40.8857C616.07 40.8857 621.547 42.2761 626.231 45.057C630.914 47.7583 634.526 51.6117 637.066 56.6172C639.686 61.5432 640.995 67.3829 640.995 74.1363C640.995 80.8103 639.686 86.65 637.066 91.6555C634.526 96.6609 630.914 100.554 626.231 103.335C621.547 106.036 616.07 107.387 609.799 107.387ZM609.799 94.9924C614.721 94.9924 618.491 93.165 621.111 89.5103C623.81 85.8555 625.159 80.7308 625.159 74.1363C625.159 67.6213 623.81 62.5364 621.111 58.8816C618.491 55.1473 614.721 53.2802 609.799 53.2802C604.878 53.2802 601.067 55.1473 598.368 58.8816C595.67 62.5364 594.32 67.6213 594.32 74.1363C594.32 80.7308 595.67 85.8555 598.368 89.5103C601.067 93.165 604.878 94.9924 609.799 94.9924Z" fill="black"/>
<path d="M477.524 105.957V42.3159H491.336L491.812 57.9282L490.383 57.2131C491.098 53.7967 492.328 50.8967 494.075 48.5131C495.9 46.0501 498.083 44.183 500.623 42.9118C503.243 41.5611 506.101 40.8857 509.196 40.8857C514.594 40.8857 518.96 42.4351 522.294 45.5337C525.628 48.5528 527.732 52.7241 528.605 58.0473H526.581C527.295 54.3131 528.525 51.2145 530.272 48.7515C532.018 46.209 534.201 44.2624 536.821 42.9118C539.519 41.5611 542.536 40.8857 545.87 40.8857C550.236 40.8857 554.006 41.8392 557.181 43.746C560.357 45.5734 562.778 48.2748 564.445 51.8501C566.191 55.4254 567.064 59.835 567.064 65.0788V105.957H551.823V69.0117C551.823 63.7679 550.91 59.835 549.085 57.2131C547.338 54.5912 544.639 53.2802 540.988 53.2802C538.527 53.2802 536.424 53.9158 534.677 55.1871C532.931 56.4583 531.581 58.3254 530.629 60.7884C529.756 63.172 529.319 66.072 529.319 69.4884V105.957H515.15V69.4884C515.15 64.2446 514.356 60.2323 512.769 57.4515C511.181 54.6706 508.442 53.2802 504.553 53.2802C502.092 53.2802 499.988 53.9158 498.242 55.1871C496.575 56.4583 495.226 58.3254 494.194 60.7884C493.241 63.172 492.765 66.072 492.765 69.4884V105.957H477.524Z" fill="black"/>
<path d="M424.065 77.5919V64.7207H464.549V77.5919H424.065Z" fill="black"/>
<path d="M405.564 105.957C399.213 105.957 394.53 104.487 391.513 101.547C388.576 98.6073 387.108 93.9991 387.108 87.7224V27.4185H402.349V86.2923C402.349 89.232 402.984 91.2977 404.254 92.4895C405.524 93.6018 407.508 94.158 410.207 94.158H419.138V105.957H405.564ZM377.106 54.1143V42.3157H419.138V54.1143H377.106Z" fill="black"/>
<path d="M308.271 105.956L331.133 73.54L309.105 42.3154H325.656L340.182 64.0058L354.47 42.3154H371.259L349.35 73.6592L372.093 105.956H355.542L340.42 83.0742L325.179 105.956H308.271Z" fill="black"/>
<path d="M275.262 107.387C268.912 107.387 263.395 106.036 258.711 103.335C254.028 100.554 250.416 96.6609 247.876 91.6555C245.336 86.65 244.066 80.8103 244.066 74.1363C244.066 67.4624 245.336 61.6624 247.876 56.7364C250.416 51.7309 253.988 47.8378 258.592 45.057C263.276 42.2761 268.713 40.8857 274.905 40.8857C280.938 40.8857 286.217 42.2364 290.741 44.9378C295.345 47.6391 298.878 51.5323 301.338 56.6172C303.799 61.7021 305.03 67.8199 305.03 74.9706V78.4267H259.902C260.22 83.9884 261.728 88.1993 264.427 91.0596C267.205 93.8404 270.857 95.2308 275.381 95.2308C278.795 95.2308 281.613 94.476 283.835 92.9664C286.137 91.3774 287.725 89.1925 288.598 86.4116L304.196 87.3651C302.45 93.5623 298.997 98.4486 293.837 102.024C288.757 105.599 282.565 107.387 275.262 107.387ZM259.902 68.1774H289.312C288.995 63.0131 287.526 59.1994 284.907 56.7364C282.287 54.1939 278.953 52.9227 274.905 52.9227C270.857 52.9227 267.483 54.2336 264.784 56.8556C262.164 59.4775 260.537 63.2514 259.902 68.1774Z" fill="black"/>
<path d="M177.757 105.957V42.3159H191.569L192.165 60.1925L190.379 59.4775C191.014 55.0282 192.323 51.4528 194.308 48.7515C196.292 46.0501 198.714 44.0638 201.571 42.7926C204.429 41.5214 207.564 40.8857 210.978 40.8857C215.661 40.8857 219.59 41.9186 222.766 43.9844C226.02 46.0501 228.481 48.9104 230.148 52.5652C231.815 56.1405 232.648 60.3117 232.648 65.0788V105.957H217.407V69.9651C217.407 66.3898 217.05 63.3706 216.336 60.9076C215.621 58.4446 214.431 56.5775 212.764 55.3063C211.176 53.9556 209.033 53.2802 206.334 53.2802C202.286 53.2802 199.031 54.7104 196.57 57.5706C194.189 60.4309 192.998 64.5624 192.998 69.9651V105.957H177.757Z" fill="black"/>
</svg>
