<svg width="801" height="130" viewBox="0 0 801 130" fill="none" xmlns="http://www.w3.org/2000/svg">
<path d="M50.0635 3.37354H10.013C6.32643 3.37354 3.33789 6.36479 3.33789 10.0547V50.1416C3.33789 53.8315 6.32643 56.8227 10.013 56.8227H50.0635C53.75 56.8227 56.7386 53.8315 56.7386 50.1416V10.0547C56.7386 6.36479 53.75 3.37354 50.0635 3.37354Z" fill="#009689"/>
<path d="M53.4006 10.0549C53.4006 8.20999 51.9064 6.71431 50.0631 6.71429H10.0126C8.16935 6.71429 6.67502 8.20998 6.67502 10.0549V50.1418C6.67504 51.9868 8.16936 53.4824 10.0126 53.4824H50.0631C51.9064 53.4824 53.4006 51.9868 53.4006 50.1418V10.0549ZM60.0758 50.1418C60.0757 55.6767 55.5929 60.1636 50.0631 60.1636H10.0126C4.48282 60.1636 1.81654e-05 55.6767 0 50.1418V10.0549C0 4.52008 4.48281 0.0332031 10.0126 0.0332031H50.0631C55.5929 0.0332213 60.0758 4.52009 60.0758 10.0549V50.1418Z" fill="#009689"/>
<path d="M122.822 10.0217C122.822 8.17679 121.327 6.6811 119.484 6.68109H79.4335C77.5903 6.68109 76.0959 8.17678 76.0959 10.0217V50.1086C76.0959 51.9536 77.5903 53.4492 79.4335 53.4492H119.484C121.327 53.4492 122.822 51.9536 122.822 50.1086V10.0217ZM129.497 50.1086C129.497 55.6435 125.014 60.1303 119.484 60.1304H79.4335C73.9037 60.1304 69.4209 55.6435 69.4209 50.1086V10.0217C69.4209 4.48688 73.9037 0 79.4335 0H119.484C125.014 1.81841e-05 129.497 4.48689 129.497 10.0217V50.1086Z" fill="white"/>
<path d="M53.4006 79.5725C53.4006 77.7276 51.9064 76.2319 50.0631 76.2319H10.0126C8.16935 76.2319 6.67502 77.7276 6.67502 79.5725V119.659C6.67504 121.504 8.16936 123 10.0126 123H50.0631C51.9064 123 53.4006 121.504 53.4006 119.659V79.5725ZM60.0758 119.659C60.0757 125.194 55.5929 129.681 50.0631 129.681H10.0126C4.48282 129.681 1.81654e-05 125.194 0 119.659V79.5725C0 74.0377 4.48281 69.5508 10.0126 69.5508H50.0631C55.5929 69.5508 60.0758 74.0377 60.0758 79.5725V119.659Z" fill="white"/>
<path d="M69.4551 115.651V112.978C69.4551 111.133 70.9493 109.638 72.7926 109.638C74.6359 109.638 76.1301 111.133 76.1301 112.978V115.651C76.1301 117.577 76.1327 118.82 76.21 119.767C76.2841 120.674 76.4098 121.011 76.4938 121.176H76.4939C76.804 121.785 77.2928 122.284 77.8937 122.605L77.9521 122.636L77.9525 122.636C78.1175 122.72 78.4537 122.846 79.3603 122.92C80.306 122.997 81.5485 123 83.4728 123H86.1427C87.986 123 89.4803 124.496 89.4803 126.341C89.4803 128.185 87.986 129.681 86.1427 129.681H83.4728C81.6586 129.681 80.0972 129.684 78.8167 129.579C77.4972 129.471 76.1848 129.233 74.9219 128.589V128.589C73.0377 127.628 71.5063 126.095 70.5465 124.209C69.903 122.945 69.6649 121.632 69.5571 120.311C69.4524 119.029 69.4551 117.466 69.4551 115.651ZM102.83 123C104.674 123 106.168 124.496 106.168 126.341C106.168 128.185 104.674 129.681 102.83 129.681H96.1554C94.3121 129.681 92.8178 128.185 92.8178 126.341C92.8179 124.496 94.3121 123 96.1554 123H102.83ZM122.856 115.651V112.978C122.856 111.133 124.35 109.638 126.193 109.638C128.037 109.638 129.531 111.133 129.531 112.978V115.651C129.531 117.466 129.533 119.029 129.429 120.311C129.321 121.632 129.083 122.945 128.439 124.209L128.439 124.209C127.48 126.095 125.948 127.628 124.064 128.589L124.064 128.589C122.801 129.233 121.489 129.471 120.169 129.579C118.889 129.684 117.327 129.681 115.513 129.681H112.843C111 129.681 109.506 128.185 109.506 126.341C109.506 124.496 111 123 112.843 123H115.513C117.437 123 118.68 122.997 119.626 122.92C120.532 122.846 120.868 122.72 121.033 122.636L121.034 122.636C121.661 122.316 122.172 121.805 122.492 121.176L122.492 121.176C122.576 121.011 122.702 120.674 122.776 119.767C122.853 118.82 122.856 117.577 122.856 115.651ZM69.4551 102.957V96.2753C69.4551 94.4304 70.9493 92.9348 72.7926 92.9348C74.6359 92.9348 76.1301 94.4304 76.1301 96.2753V102.957C76.1301 104.801 74.6359 106.297 72.7926 106.297C70.9493 106.297 69.4551 104.801 69.4551 102.957ZM122.856 102.957V96.2753C122.856 94.4304 124.35 92.9348 126.193 92.9348C128.036 92.9348 129.531 94.4304 129.531 96.2753V102.957C129.531 104.801 128.037 106.297 126.193 106.297C124.35 106.297 122.856 104.801 122.856 102.957ZM69.4551 86.2536V83.5812C69.4551 81.7654 69.4524 80.2027 69.5571 78.921C69.6649 77.6004 69.903 76.2868 70.5464 75.0228H70.5463C71.5062 73.137 73.0381 71.6038 74.9221 70.643V70.6431C76.185 69.9991 77.4973 69.7608 78.8168 69.6529C80.0973 69.5481 81.6587 69.5508 83.4728 69.5508H86.1427C87.986 69.5508 89.4803 71.0464 89.4803 72.8913C89.4803 74.7363 87.986 76.2319 86.1427 76.2319H83.4728C81.5485 76.2319 80.306 76.2345 79.3603 76.3118C78.4537 76.386 78.1175 76.5119 77.9525 76.596H77.9524C77.3245 76.9163 76.8139 77.4273 76.4939 78.0558V78.0559C76.4099 78.2211 76.2841 78.5576 76.21 79.4651C76.1327 80.4116 76.1301 81.6552 76.1301 83.5812V86.2536C76.1301 88.0985 74.6359 89.5942 72.7926 89.5942C70.9493 89.5942 69.4551 88.0985 69.4551 86.2536ZM122.856 86.2536V83.5812C122.856 81.6552 122.853 80.4116 122.776 79.4651C122.702 78.5576 122.576 78.2211 122.492 78.0559L122.492 78.0556C122.172 77.4274 121.661 76.9164 121.033 76.596V76.5959C120.868 76.5118 120.532 76.386 119.626 76.3118C118.68 76.2345 117.437 76.2319 115.513 76.2319H112.843C111 76.2319 109.506 74.7363 109.506 72.8913C109.506 71.0464 111 69.5508 112.843 69.5508H115.513C117.327 69.5508 118.889 69.5481 120.169 69.6529C121.489 69.7608 122.801 69.999 124.064 70.6431L124.064 70.6432C125.948 71.6038 127.48 73.1367 128.439 75.0226L128.499 75.1413C129.098 76.3688 129.324 77.6416 129.429 78.921C129.533 80.2027 129.531 81.7655 129.531 83.5812V86.2536C129.531 88.0985 128.037 89.5942 126.193 89.5942C124.35 89.5942 122.856 88.0985 122.856 86.2536ZM102.83 69.5508C104.674 69.5508 106.168 71.0464 106.168 72.8913C106.168 74.7363 104.674 76.2319 102.83 76.2319H96.1554C94.3121 76.2319 92.8178 74.7363 92.8178 72.8913C92.8178 71.0464 94.3121 69.5508 96.1554 69.5508H102.83Z" fill="white"/>
<path d="M770.549 98.8274V46.5654H782.282L782.771 61.05L781.696 60.8543C782.478 55.8304 783.945 52.2092 786.096 49.9908C788.312 47.7072 791.311 46.5654 795.092 46.5654H799.883V57.331H794.994C792.321 57.331 790.105 57.7225 788.345 58.5054C786.585 59.2884 785.248 60.5281 784.336 62.2245C783.488 63.8556 783.065 66.0087 783.065 68.6838V98.8274H770.549Z" fill="white"/>
<path d="M729.176 100.002C723.701 100.002 719.301 98.7623 715.976 96.2829C712.652 93.7384 710.989 90.2151 710.989 85.7131C710.989 81.2111 712.391 77.6879 715.194 75.1433C717.997 72.5987 722.267 70.7718 728.003 69.6626L745.31 66.2372C745.31 62.5182 744.463 59.7452 742.768 57.9183C741.073 56.0262 738.563 55.0801 735.239 55.0801C732.24 55.0801 729.861 55.7978 728.101 57.2333C726.406 58.6034 725.233 60.5934 724.581 63.2033L711.869 62.616C712.912 57.0701 715.455 52.8291 719.496 49.8931C723.538 46.8918 728.785 45.3911 735.239 45.3911C742.67 45.3911 748.276 47.2832 752.057 51.0675C755.903 54.7865 757.826 60.1367 757.826 67.118V86.1046C757.826 87.4747 758.054 88.4208 758.51 88.9428C759.032 89.4647 759.781 89.7257 760.759 89.7257H762.422V98.8275C762.03 98.958 761.379 99.0559 760.466 99.1211C759.619 99.1864 758.739 99.219 757.826 99.219C755.675 99.219 753.752 98.8928 752.057 98.2403C750.362 97.5226 749.058 96.3156 748.146 94.6192C747.233 92.8575 746.777 90.4761 746.777 87.4747L747.852 88.2577C747.331 90.5413 746.19 92.5966 744.43 94.4234C742.735 96.1851 740.584 97.5552 737.977 98.5339C735.369 99.5126 732.436 100.002 729.176 100.002ZM731.719 90.9002C734.522 90.9002 736.934 90.3456 738.954 89.2364C740.975 88.1272 742.54 86.5939 743.648 84.6365C744.756 82.6792 745.31 80.3629 745.31 77.6879V74.7518L731.816 77.4921C729.013 78.0793 726.993 78.9602 725.754 80.1346C724.581 81.2438 723.994 82.7118 723.994 84.5387C723.994 86.5613 724.646 88.1272 725.95 89.2364C727.319 90.3456 729.242 90.9002 731.719 90.9002Z" fill="white"/>
<path d="M697.698 98.8273C693.918 98.8273 690.886 97.8486 688.605 95.8912C686.323 93.9338 685.183 90.802 685.183 86.4958V29.3403H697.698V85.2235C697.698 86.5284 698.024 87.5071 698.676 88.1595C699.393 88.812 700.371 89.1382 701.61 89.1382H705.423V98.8273H697.698Z" fill="white"/>
<path d="M644.049 100.002C638.769 100.002 634.564 98.2728 631.436 94.8148C628.372 91.2915 626.84 86.4307 626.84 80.2323V46.5654H639.356V77.1005C639.356 81.472 640.073 84.7017 641.507 86.7896C643.006 88.8122 645.255 89.8235 648.254 89.8235C651.643 89.8235 654.251 88.7143 656.076 86.4959C657.966 84.2123 658.912 80.9174 658.912 76.6112V46.5654H671.428V98.8274H659.987L659.694 84.4407L661.258 84.93C660.476 89.8887 658.618 93.6404 655.685 96.185C652.752 98.7296 648.873 100.002 644.049 100.002Z" fill="white"/>
<path d="M586.405 100.002C581.973 100.002 578.127 98.8925 574.867 96.6741C571.673 94.4558 569.196 91.2914 567.436 87.1809C565.676 83.0704 564.796 78.2422 564.796 72.6963C564.796 67.1504 565.676 62.3222 567.436 58.2117C569.196 54.1012 571.706 50.9367 574.965 48.7184C578.224 46.5 582.038 45.3908 586.405 45.3908C590.056 45.3908 593.25 46.1412 595.988 47.6418C598.791 49.1425 600.909 51.263 602.343 54.0033V29.3403H614.859V98.8273H602.93L602.637 91.0956C601.203 93.9012 599.052 96.0869 596.183 97.6528C593.315 99.2187 590.056 100.002 586.405 100.002ZM590.219 89.8233C592.826 89.8233 595.01 89.1709 596.77 87.8659C598.595 86.561 599.964 84.6363 600.877 82.0917C601.855 79.4818 602.343 76.35 602.343 72.6963C602.343 68.9772 601.855 65.8454 600.877 63.3008C599.964 60.7563 598.595 58.8315 596.77 57.5266C595.01 56.2217 592.826 55.5692 590.219 55.5692C586.438 55.5692 583.407 57.1025 581.125 60.169C578.909 63.1704 577.801 67.3461 577.801 72.6963C577.801 77.9159 578.909 82.0917 581.125 85.2235C583.407 88.29 586.438 89.8233 590.219 89.8233Z" fill="white"/>
<path d="M532.551 100.002C527.401 100.002 522.871 98.8928 518.96 96.6744C515.114 94.3908 512.115 91.1938 509.964 87.0833C507.878 82.9728 506.835 78.1772 506.835 72.6965C506.835 67.1506 507.878 62.3551 509.964 58.3098C512.115 54.1993 515.114 51.0349 518.96 48.8165C522.871 46.5329 527.401 45.3911 532.551 45.3911C537.701 45.3911 542.199 46.5329 546.045 48.8165C549.891 51.0349 552.857 54.1993 554.943 58.3098C557.094 62.3551 558.169 67.1506 558.169 72.6965C558.169 78.1772 557.094 82.9728 554.943 87.0833C552.857 91.1938 549.891 94.3908 546.045 96.6744C542.199 98.8928 537.701 100.002 532.551 100.002ZM532.551 89.8236C536.593 89.8236 539.689 88.3229 541.84 85.3216C544.057 82.3203 545.165 78.112 545.165 72.6965C545.165 67.3464 544.057 63.1706 541.84 60.1693C539.689 57.1028 536.593 55.5695 532.551 55.5695C528.51 55.5695 525.381 57.1028 523.164 60.1693C520.948 63.1706 519.84 67.3464 519.84 72.6965C519.84 78.112 520.948 82.3203 523.164 85.3216C525.381 88.3229 528.51 89.8236 532.551 89.8236Z" fill="white"/>
<path d="M423.927 98.8275V46.5655H435.269L435.66 59.3864L434.487 58.7992C435.074 55.9936 436.084 53.6121 437.518 51.6547C439.017 49.6321 440.81 48.0988 442.896 47.0549C445.047 45.9457 447.394 45.3911 449.936 45.3911C454.369 45.3911 457.954 46.6634 460.692 49.208C463.43 51.6873 465.157 55.1128 465.874 59.4842H464.212C464.799 56.4177 465.809 53.8731 467.243 51.8505C468.677 49.7626 470.47 48.1641 472.621 47.0549C474.838 45.9457 477.315 45.3911 480.052 45.3911C483.638 45.3911 486.734 46.1741 489.342 47.74C491.949 49.2406 493.937 51.459 495.306 54.395C496.74 57.3311 497.457 60.9523 497.457 65.2585V98.8275H484.941V68.4882C484.941 64.1819 484.192 60.9523 482.693 58.7992C481.258 56.646 479.042 55.5695 476.044 55.5695C474.023 55.5695 472.295 56.0914 470.861 57.1354C469.427 58.1793 468.319 59.7126 467.537 61.7352C466.82 63.6926 466.461 66.0741 466.461 68.8797V98.8275H454.825V68.8797C454.825 64.5734 454.173 61.2785 452.87 58.9949C451.566 56.7113 449.317 55.5695 446.123 55.5695C444.102 55.5695 442.375 56.0914 440.94 57.1354C439.572 58.1793 438.463 59.7126 437.616 61.7352C436.834 63.6926 436.443 66.0741 436.443 68.8797V98.8275H423.927Z" fill="white"/>
<path d="M380.026 75.5342V64.9644H413.272V75.5342H380.026Z" fill="white"/>
<path d="M364.832 98.8272C359.617 98.8272 355.771 97.6201 353.294 95.206C350.882 92.7919 349.676 89.0077 349.676 83.8532V34.3315H362.192V82.6788C362.192 85.0929 362.714 86.7893 363.757 87.768C364.8 88.6814 366.429 89.1381 368.646 89.1381H375.979V98.8272H364.832ZM341.463 56.2542V46.5652H375.979V56.2542H341.463Z" fill="white"/>
<path d="M284.936 98.8274L303.709 72.2071L285.62 46.5654H299.211L311.141 64.3776L322.874 46.5654H336.661L318.67 72.305L337.346 98.8274H323.754L311.336 80.0366L298.82 98.8274H284.936Z" fill="white"/>
<path d="M257.828 100.002C252.613 100.002 248.083 98.8928 244.237 96.6744C240.391 94.3908 237.425 91.1938 235.339 87.0833C233.253 82.9728 232.21 78.1772 232.21 72.6965C232.21 67.2159 233.253 62.4529 235.339 58.4077C237.425 54.2972 240.358 51.1001 244.139 48.8165C247.985 46.5329 252.45 45.3911 257.535 45.3911C262.489 45.3911 266.824 46.5003 270.54 48.7187C274.321 50.937 277.221 54.1341 279.242 58.3098C281.263 62.4855 282.273 67.5095 282.273 73.3816V76.2198H245.215C245.475 80.787 246.714 84.2451 248.93 86.5939C251.212 88.8775 254.21 90.0193 257.926 90.0193C260.729 90.0193 263.043 89.3995 264.868 88.1598C266.759 86.8549 268.063 85.0606 268.78 82.777L281.589 83.56C280.155 88.6492 277.319 92.6618 273.082 95.5979C268.91 98.5339 263.826 100.002 257.828 100.002ZM245.215 67.8031H269.366C269.106 63.5621 267.9 60.4303 265.749 58.4077C263.597 56.3198 260.86 55.2759 257.535 55.2759C254.21 55.2759 251.44 56.3524 249.224 58.5055C247.073 60.6587 245.736 63.7578 245.215 67.8031Z" fill="white"/>
<path d="M177.758 98.8275V46.5655H189.1L189.589 61.2459L188.122 60.6587C188.644 57.0049 189.72 54.0688 191.349 51.8505C192.979 49.6321 194.967 48.0009 197.314 46.957C199.661 45.9131 202.235 45.3911 205.038 45.3911C208.884 45.3911 212.111 46.2393 214.719 47.9357C217.391 49.6321 219.412 51.981 220.781 54.9823C222.15 57.9183 222.834 61.3437 222.834 65.2585V98.8275H210.319V69.2711C210.319 66.3351 210.025 63.8557 209.439 61.8331C208.852 59.8105 207.874 58.2772 206.505 57.2333C205.201 56.1241 203.441 55.5695 201.225 55.5695C197.901 55.5695 195.228 56.7439 193.207 59.0928C191.251 61.4416 190.274 64.8344 190.274 69.2711V98.8275H177.758Z" fill="white"/>
</svg>
